<svg xmlns="http://www.w3.org/2000/svg" viewBox="0 0 128 128" width="128" height="128"><path d="M16 16h96a10 10 0 0 1 10 10v29a9 9 0 0 0 0 18v29a10 10 0 0 1-10 10H16a10 10 0 0 1-10-10V73a9 9 0 0 0 0-18V26a10 10 0 0 1 10-10z" fill="none" stroke="#fbf6ec" stroke-width="16" stroke-linejoin="round"/><path d="M16 16h96a10 10 0 0 1 10 10v29a9 9 0 0 0 0 18v29a10 10 0 0 1-10 10H16a10 10 0 0 1-10-10V73a9 9 0 0 0 0-18V26a10 10 0 0 1 10-10z" fill="#fbf6ec" stroke="#1d1a2f" stroke-width="7" stroke-linejoin="round"/><line x1="24" y1="30" x2="24" y2="98" stroke="#ff3d8f" stroke-width="3" stroke-dasharray="3 6" stroke-linecap="round"/><text x="70" y="66" text-anchor="middle" dominant-baseline="central" font-family="'Zen Maru Gothic'" font-weight="900" font-size="70" letter-spacing="-2" fill="#1d1a2f">SS</text><circle cx="104" cy="26" r="24" fill="#fbf6ec"/><circle cx="104" cy="26" r="20" fill="#f4b400" stroke="#1d1a2f" stroke-width="5"/><path d="M94 26h20M104 16v20" stroke="#1d1a2f" stroke-width="7" stroke-linecap="round"/></svg>